<svg xmlns="http://www.w3.org/2000/svg" viewBox="0 0 466.09 162.12"><defs><style>.cls-1{fill:transparent;}.cls-2{fill:#fff;}</style></defs><title>giffgaff logo shortened</title><g id="Layer_2" data-name="Layer 2"><g id="Layer_1-2" data-name="Layer 1"><rect class="cls-1" width="466.09" height="162.12"/><path class="cls-2" d="M430,23.12a40.68,40.68,0,0,0-5.42-.43c-6.76,0-12.54,1.32-17,4.09-6.53,4.11-9.81,11-9.81,20.3v1.74H376.19V47.68c0-7.36,4.12-11,12.73-11l3.2.41V23.12a38.14,38.14,0,0,0-5.67-.43c-6.75,0-12.18,1.32-16.72,4.09-6.64,4.11-9.82,10.67-9.82,20.1v53.8h-11c-1.84,0-2.77-.89-2.77-2.86V73.44c0-17.43-9.32-26.14-28.28-26.14a38.38,38.38,0,0,0-14.48,2.45c-6.22,2-9.52,5.85-9.52,11.06v6.88H309V64.22c0-1.47,1-2.8,3.37-3.41a12.41,12.41,0,0,1,5.32-.92c4.31,0,7.38.92,9.33,2.86s2.77,5.45,2.77,10v.51h-2c-9.2,0-17.13,1.13-23.58,3.49C293.89,80.39,289,86.54,289,95.34c0,6.38,2.07,11.41,6.68,15.06,4.1,3.5,9.44,5.25,15.71,5.25A22,22,0,0,0,326.62,110a20.19,20.19,0,0,0,4.37-5.94h.33l-.2,2.87a7,7,0,0,0,1.94,5.21c1.54,1.55,3.6,2.15,6.35,2.15h36.78V62h21.54v52.36h16.09V62h14.46V48.82H413.82V47.68c0-7.36,4.21-11,12.71-11L430,37ZM327.22,84.3h2.88v1.75a16.61,16.61,0,0,1-4.23,11.26c-2.75,3.66-6.43,5.72-10.54,5.72-3.29,0-5.73-.81-7.47-2.35a9,9,0,0,1-2.48-5.94q0-10.44,21.84-10.44"/><path class="cls-2" d="M264.71,54.9v1.83h-.21A14.92,14.92,0,0,0,260,52.1c-4.13-3.28-9.33-4.79-15.7-4.79-9.12,0-16.29,3.26-21.61,9.61-4.92,5.86-7.4,13.72-7.4,23,0,9.43,2.65,17,7.69,23.17,5.31,6.56,12.82,9.74,21.72,9.74,8.12,0,14.15-2.79,18.35-8.31h.09l-.09,6.65c0,5.46-1.73,9.52-5.5,12.41-3.3,2.35-7.41,3.58-12.85,3.58a40.74,40.74,0,0,1-13-2.34l-5.22-2.15-5,12.92a51.15,51.15,0,0,0,23.24,5.63c9.55,0,17.44-2.45,23.78-7.07,7.17-5.43,10.87-13.26,10.87-23.71V65.45c0-1.86.94-2.67,2.78-2.67h5.13v-14H271.88a7.34,7.34,0,0,0-5.33,1.94,5.55,5.55,0,0,0-1.84,4.14M235.8,66c2.78-3.26,6.54-4.79,11.27-4.79,10.86,0,16.41,6.34,16.41,18.94,0,6.66-1.55,11.79-4.63,15.08A15.73,15.73,0,0,1,236,93.5c-2.79-3.58-4.24-8.39-4.24-14.13s1.45-10.17,4-13.33"/><path class="cls-2" d="M213.15,61.64V48.82H199V47.68c0-7.36,4.05-11,12.58-11l3.24.2V22.89a47.93,47.93,0,0,0-5.4-.18c-6.76,0-12.4,1.32-17,3.88-6.45,4.11-9.83,10.86-9.83,20.3v1.93H161.09V47.68c0-7.36,4.07-11,12.69-11l3.48.2V22.89a52.36,52.36,0,0,0-5.64-.18c-6.84,0-12.17,1.32-16.76,3.88-6.79,4.11-10.06,10.86-10.06,20.3v53.49h-12c-1.94,0-2.78-.83-2.78-2.77V57.51c0-3-.7-5.2-2.27-6.75-1.31-1.21-3.35-1.94-6.23-1.94H91.4A7.78,7.78,0,0,0,86,50.76a5.69,5.69,0,0,0-1.54,4.14,2,2,0,0,0,0,1.5h-.31a18.61,18.61,0,0,0-4.39-4.61c-4.23-3-9.35-4.48-15.69-4.48-9.24,0-16.41,3.26-21.73,9.61-4.91,5.86-7.16,13.43-7.47,22.76.31,9.41,2.84,17.21,7.92,23.37,5.44,6.56,12.55,9.74,21.68,9.74,8,0,14.18-2.79,18.16-8.31h.09v6.45c0,5.66-1.64,9.72-5.42,12.61-3.3,2.35-7.59,3.48-13,3.48a39.9,39.9,0,0,1-12.92-2.24l-5.21-2.15-4.93,12.92a51.47,51.47,0,0,0,23.25,5.63c9.44,0,17.24-2.45,23.6-7.07,7.15-5.43,10.86-13.46,10.86-23.89V65.15c0-1.56.92-2.37,2.76-2.37h9.43c1.93,0,2.76.81,2.76,2.67v40c0,3.08.6,5.21,2,6.56,1.22,1.51,3.38,2.16,6.45,2.16h38.75V61.64h21.53v52.48H199V61.64ZM55.3,66a14.58,14.58,0,0,1,11.61-5C77.79,61,83.2,67.39,83.2,79.88c0,6.76-1.53,12.1-4.81,15.39-2.65,2.55-6,3.89-10.67,3.89a14.78,14.78,0,0,1-12-5.66,22.57,22.57,0,0,1-4.43-14.13q0-8.59,4-13.33"/><rect class="cls-2" x="113.65" y="22.69" width="16.39" height="16.3"/></g></g></svg>