<?xml version="1.0" encoding="UTF-8" standalone="no"?> 

<svg
   xmlns:dc="http://purl.org/dc/elements/1.1/"
   xmlns:cc="http://creativecommons.org/ns#"
   xmlns:rdf="http://www.w3.org/1999/02/22-rdf-syntax-ns#"
   xmlns:svg="http://www.w3.org/2000/svg"
   xmlns="http://www.w3.org/2000/svg"
   xmlns:sodipodi="http://sodipodi.sourceforge.net/DTD/sodipodi-0.dtd"
   xmlns:inkscape="http://www.inkscape.org/namespaces/inkscape"
   version="1.1"
   id="Layer_1"
   x="0px"
   y="0px"
   width="200"
   height="80"
   viewBox="0 0 575.21999 149.964"
   enable-background="new 0 0 605 170"
   xml:space="preserve"
   sodipodi:docname="Sports Illustrated Logo.svg"
   inkscape:version="0.92.0 r15299"><metadata
     id="metadata25"><rdf:RDF><cc:Work
         rdf:about=""><dc:format>image/svg+xml</dc:format><dc:type
           rdf:resource="http://purl.org/dc/dcmitype/StillImage" /><dc:title></dc:title></cc:Work></rdf:RDF></metadata><defs
     id="defs23" /><sodipodi:namedview
     pagecolor="#ffffff"
     bordercolor="#666666"
     borderopacity="1"
     objecttolerance="10"
     gridtolerance="10"
     guidetolerance="10"
     inkscape:pageopacity="0"
     inkscape:pageshadow="2"
     inkscape:window-width="1600"
     inkscape:window-height="838"
     id="namedview21"
     showgrid="false"
     fit-margin-top="0"
     fit-margin-left="0"
     fit-margin-right="-11.564"
     fit-margin-bottom="0"
     inkscape:showpageshadow="false"
     inkscape:zoom="256"
     inkscape:cx="573.60745"
     inkscape:cy="1.7102858"
     inkscape:window-x="-8"
     inkscape:window-y="-8"
     inkscape:window-maximized="1"
     inkscape:current-layer="Layer_1" /><g
     id="g18"
     transform="translate(-13.388,-10.019)"><g
       id="g16"><path
         d="m 301.324,70.773 c 0,1.498 -1.762,2.566 -3.271,2.566 -1.511,0 -3.021,-1.068 -3.021,-2.566 V 39.54 c 0,-1.284 1.51,-2.354 3.021,-2.354 1.512,0 3.271,1.07 3.271,2.354 z M 190.903,65.638 v -4.063 c 0,-12.408 -7.802,-17.541 -32.215,-22.463 -7.299,-1.498 -10.067,-2.994 -10.067,-7.486 v -2.782 c 0,-2.14 2.013,-3.208 3.774,-3.208 2.518,0 3.775,1.498 3.775,3.208 v 8.771 h 33.474 v -5.348 c 0,-14.548 -7.802,-22.248 -39.011,-22.248 -22.651,0 -39.514,6.846 -39.514,22.034 v 2.78 c 0,13.265 6.796,19.255 32.215,24.602 8.055,1.713 10.823,1.926 10.823,6.633 v 2.781 c 0,2.78 -0.756,3.85 -3.776,3.85 -3.522,0 -3.774,-1.924 -3.774,-4.063 V 61.363 H 111.12 v 3.423 c 0,17.971 11.829,23.317 40.27,23.317 26.929,-10e-4 39.513,-4.921 39.513,-22.465 z m 234.181,19.68 V 67.775 h -6.039 c -3.525,0 -4.279,-0.854 -4.279,-2.779 V 44.459 h 10.066 V 25.206 h -10.066 v -8.56 H 383.557 V 69.06 c 0,11.553 7.805,16.258 23.91,16.258 z M 332.281,66.064 V 44.245 c 0,-15.189 -14.852,-20.109 -34.229,-20.109 -19.883,0 -34.479,4.92 -34.479,20.109 v 21.819 c 0,14.978 14.598,20.109 34.479,20.109 19.38,0.002 34.229,-5.131 34.229,-20.109 z m 160.725,0.644 v -2.567 c 0,-7.701 -4.027,-11.767 -26.932,-17.113 -6.291,-1.498 -9.063,-2.141 -9.063,-4.92 v -2.781 c 0,-1.498 1.514,-2.141 2.771,-2.141 1.762,0 3.02,0.643 3.02,2.141 v 6.203 h 28.691 v -4.707 c 0,-12.621 -13.086,-16.687 -31.963,-16.687 -17.869,0 -33.475,4.064 -33.475,16.9 v 2.354 c 0,7.487 2.77,13.903 27.686,19.896 6.041,1.497 9.061,2.353 9.061,5.134 v 2.995 c 0,1.497 -1.258,1.926 -3.02,1.926 -1.258,0 -2.771,-0.644 -2.771,-2.14 v -5.99 h -30.955 v 3.209 c 0,12.408 8.559,17.971 33.727,17.971 19.379,-0.002 33.223,-3.638 33.223,-19.683 z M 261.339,67.35 V 42.962 c 0,-15.188 -12.332,-17.756 -25.671,-17.756 h -42.534 v 70.383 h 31.208 V 85.318 h 9.815 c 13.089,0 27.182,-2.996 27.182,-17.968 z M 47.868,158.695 V 73.552 h -34.48 v 85.144 h 34.48 z m 540.741,0 V 82.538 H 557.402 V 98.583 H 546.58 c -11.578,0 -25.924,3.637 -25.924,17.543 v 24.813 c 0,13.905 12.836,17.756 24.412,17.756 z m -470.66,0 V 85.747 h -31.46 v 72.948 z m -35.131,0 V 85.747 H 51.359 v 72.948 z m 366.93,0 v -17.541 h -5.535 c -3.271,0 -4.027,-0.854 -4.027,-2.567 v -21.179 h 9.563 V 98.583 h -9.563 v -8.558 h -31.209 v 52.199 c 0,11.979 7.803,16.471 23.91,16.471 z m -149.682,0 v -17.541 h -5.789 c -3.021,0 -4.027,-0.854 -4.027,-2.567 v -21.179 h 9.816 V 98.583 h -9.816 v -8.558 h -31.208 v 52.199 c 0,11.979 7.802,16.471 23.91,16.471 z m 218.61,-19.252 v -4.278 h -31.209 v 8.983 c 0,1.498 -1.258,2.141 -3.02,2.141 -1.51,0 -3.021,-0.643 -3.021,-2.141 v -11.553 h 37.248 v -14.76 c 0,-14.975 -14.598,-20.323 -34.229,-20.323 -19.631,0 -33.979,4.921 -33.979,20.109 v 21.392 c 0,15.404 14.348,20.538 33.979,20.538 19.631,0 34.231,-4.704 34.231,-20.108 z M 189.392,158.695 V 98.583 h -31.208 v 46.637 h -3.271 c -2.014,0 -2.518,-0.854 -2.518,-2.567 V 98.585 h -31.208 v 42.356 c 0,11.768 9.312,17.756 24.413,17.756 h 43.792 z M 257.816,140.3 v -2.567 c 0,-7.701 -4.026,-11.767 -26.932,-17.112 -6.292,-1.498 -9.061,-2.14 -9.061,-4.923 v -2.778 c 0,-1.498 1.511,-2.142 2.769,-2.142 1.764,0 3.021,0.644 3.021,2.142 v 6.203 h 29.698 v -4.92 c 0,-12.621 -13.845,-16.474 -32.721,-16.474 -17.869,0 -33.725,3.853 -33.725,16.688 v 2.564 c 0,7.488 2.517,13.906 27.433,19.896 6.04,1.498 9.063,2.354 9.063,5.135 v 2.995 c 0,1.497 -1.258,1.925 -3.021,1.925 -1.258,0 -2.768,-0.642 -2.768,-2.139 v -5.99 h -30.957 v 3.209 c 0,12.408 8.558,17.971 33.725,17.971 19.382,-0.001 33.476,-3.639 33.476,-19.683 z M 230.383,70.13 c 0,1.284 -1.511,2.567 -3.521,2.567 h -2.52 v -34.87 h 2.52 c 2.013,0 3.521,1.282 3.521,2.565 z m 257.336,49.204 h -6.291 v -7.061 c 0,-1.496 1.51,-2.565 3.021,-2.565 2.014,0 3.271,1.069 3.271,2.565 z m 69.683,26.741 h -2.268 c -2.518,0 -3.271,-0.855 -3.271,-2.354 v -30.164 c 0,-1.068 0.754,-2.354 3.271,-2.354 h 2.268 z M 381.576,24.35 c -4.279,0 -12.332,1.498 -15.604,7.488 v -6.632 h -31.209 v 60.112 h 31.209 V 53.443 c 0,-4.92 3.523,-7.916 9.564,-7.916 h 6.039 z m 24.916,134.345 V 116.98 c 0,-11.979 -5.285,-19.469 -31.207,-19.469 h -20.387 c -11.074,0 -17.869,4.278 -21.395,11.124 V 98.581 h -31.208 v 60.112 h 31.46 v -32.729 c 0,-4.92 3.775,-7.916 9.563,-7.916 h 25.924 v -8.557 h 2.77 c 2.016,0 3.271,1.069 3.271,2.78 v 7.914 h -12.082 c -11.576,0 -26.426,3.637 -26.426,17.543 v 3.209 c 0,13.905 13.34,17.756 24.916,17.756 h 44.8 v 0.002 z m -31.207,-13.047 h -2.014 c -3.523,0 -4.027,-0.854 -4.027,-2.565 v -7.272 c 0,-2.142 1.258,-3.425 4.279,-3.425 h 1.762 z"
         id="path10"
         inkscape:connector-curvature="0"
         style="fill:#db2629" /><g
         id="g14"><path
           d="m 596.551,82.495 c 1.973,0 3.621,1.555 3.621,3.592 0,2.076 -1.65,3.631 -3.621,3.631 -1.979,0 -3.639,-1.555 -3.639,-3.631 0,-2.037 1.66,-3.592 3.639,-3.592 z m 0,6.693 c 1.672,0 2.965,-1.334 2.965,-3.101 0,-1.729 -1.293,-3.062 -2.965,-3.062 -1.688,0 -2.98,1.332 -2.98,3.062 -0.003,1.767 1.29,3.101 2.98,3.101 z m -1.408,-5.198 h 1.633 c 1.004,0 1.477,0.396 1.477,1.207 0,0.764 -0.482,1.082 -1.109,1.148 l 1.207,1.864 h -0.705 L 596.5,86.394 h -0.695 v 1.815 h -0.656 V 83.99 Z m 0.656,1.873 h 0.688 c 0.577,0 1.107,-0.028 1.107,-0.694 0,-0.56 -0.48,-0.646 -0.926,-0.646 h -0.869 z"
           id="path12"
           inkscape:connector-curvature="0"
           style="fill:#db2629" /></g></g></g></svg>