<svg width="340" height="80" viewBox="0 0 340 42" fill="none" xmlns="http://www.w3.org/2000/svg">
<path d="M290.964 11.4167L277.723 29.2601H276.227L263.285 11.3789V41.2061H255.617V0.151184H264.444L277.162 17.8056L289.879 0.151184H298.631V41.2061H290.964V11.4167Z" fill="white"/>
<path d="M146.51 0.0378418C140.114 0.0378418 133.756 0.113477 127.36 0.113477V41.1684H135.028V29.0712V21.9641V7.40959H146.51C156.273 7.40959 156.31 21.9641 146.51 21.9641H135.028L142.059 29.0712H146.51C166.409 29.0712 166.372 0.0378418 146.51 0.0378418Z" fill="white"/>
<path d="M244.807 7.59861V0.0756836H214.398V41.1306H244.807V33.4942H221.991V7.56081H244.807V7.59861Z" fill="white"/>
<path d="M243.985 24.2701V17.0496H221.991L229.135 24.2701H243.985Z" fill="white"/>
<path d="M339.215 24.2701V17.0496H317.221L324.365 24.2701H339.215Z" fill="white"/>
<path d="M340 7.59861V0.0756836H309.591V41.1306H340V33.4942H317.184V7.56081H340V7.59861Z" fill="white"/>
<path d="M205.571 40.6013L193.265 26.5761C200.97 24.9883 203.514 19.3178 203.514 13.685C203.514 6.57789 198.464 0.151243 188.889 0.0756353C182.456 0.0756353 176.022 0 169.589 0V41.0928H177.256V7.25836H188.926C193.751 7.25836 195.883 10.5473 195.883 13.8362C195.883 17.1251 193.789 20.4141 188.926 20.4141H178.64L196.482 41.1306H206.02L205.571 40.6013Z" fill="white"/>
<path d="M110.191 7.82538V23.6651C110.191 30.6967 106.601 34.9685 100.279 34.9685C93.9582 34.9685 89.769 31.0369 89.769 23.6651V7.82538L82.176 0.151184V23.6651C82.176 36.027 90.4797 42 100.205 42C110.416 42 117.784 35.8002 117.784 23.6651V0.151184L110.191 7.82538Z" fill="white"/>
<path d="M18.1408 16.3313H11.2959C10.1738 16.2935 9.08911 15.8399 8.30363 15.0082C7.51815 14.1765 7.06931 13.0802 7.06931 11.946C7.06931 10.8119 7.51815 9.71563 8.30363 8.88395C9.08911 8.05226 10.1738 7.59862 11.2959 7.56081H22.9659L30.3718 0.0756836H11.5952C8.52805 0.0756836 5.57316 1.3232 3.40374 3.51582C1.23432 5.70845 0 8.69496 0 11.7949C0 14.8948 1.23432 17.8813 3.40374 20.0739C5.57316 22.2665 8.52805 23.5141 11.5952 23.5141H17.879C19.1881 23.5141 20.4598 24.0433 21.3575 24.9884C22.2926 25.9335 22.8163 27.181 22.8163 28.5041C22.8163 29.8273 22.2926 31.1126 21.3575 32.0199C20.4224 32.965 19.1881 33.4942 17.879 33.4942H7.55556L0 41.0928H18.1408C21.3949 41.0928 24.4995 39.7697 26.8185 37.4636C29.1001 35.1576 30.4092 31.9821 30.4092 28.6932C30.4092 25.4042 29.1001 22.2665 26.8185 19.9227C24.4995 17.6167 21.3949 16.3313 18.1408 16.3313Z" fill="white"/>
<path d="M73.5731 0.264655L55.5071 19.9226L75.0693 40.6391V41.0928H65.6061L48.5874 22.8713V41.0928H40.9197V0H48.5874V17.3898L64.0352 0H73.5731V0.264655Z" fill="white"/>
</svg>
